# xmcd
#
# Track frame offsets:
#	150
#	14815
#	28854
#	42285
#	62233
#	75089
#	87635
#	100658
#
# Disc length: 1513 seconds
# Revision: 0
# Processed by: cddbd v1.5.2PL0 Copyright (c) Steve Scherf et al.
# Submitted via: dBpowerAMP V12.0
#
DISCID=5f05e708
DTITLE=Lonesome River Band - Chronology, Volume Two
DYEAR=2012
DGENRE=Country
TTITLE0=Barely Beat the Daylight In
TTITLE1=The Crime I Didn't Do
TTITLE2=Sweet Sally Brown
TTITLE3=Perfume, Powder and Lead
TTITLE4=The Game I Can't Win
TTITLE5=Tears Are Blinding Me
TTITLE6=Flat Broke and Lonesome
TTITLE7=Dog Gone Shame
EXTD=
EXTT0=
EXTT1=
EXTT2=
EXTT3=
EXTT4=
EXTT5=
EXTT6=
EXTT7=
PLAYORDER=
